<svg xmlns="http://www.w3.org/2000/svg" width="60" height="24"><path d="M59 10h-2.18c-.951-5.666-5.85-10-11.748-10-5.822 0-10.696 4.119-11.825 9.579-.971-.814-2.079-1.246-3.247-1.246-1.167 0-2.274.432-3.245 1.245C25.639 4.118 20.825 0 15.072 0 8.756 0 3.565 4.851 3.051 11H1a1 1 0 100 2h2.051c.514 6.149 5.705 11 12.021 11 6.467 0 11.736-5.207 11.911-11.671.853-1.285 1.915-1.996 3.017-1.996 1.102 0 2.164.712 3.017 1.996C33.195 18.793 38.528 24 45.072 24 51.649 24 57 18.617 57 12h2a1 1 0 100-2zM15.072 22C9.519 22 5 17.514 5 12S9.519 2 15.072 2C20.64 2 25 6.393 25 12s-4.36 10-9.928 10zm30 0C39.519 22 35 17.514 35 12S39.519 2 45.072 2C50.64 2 55 6.393 55 12s-4.36 10-9.928 10z"/></svg>