<svg xmlns="http://www.w3.org/2000/svg" viewBox="0 0 474.986 474.986"><path d="M440.904 356.937l-15.139-80.104a10.32 10.32 0 00-5.93-7.501 10.314 10.314 0 00-9.542.577l-69.815 42.086a10.317 10.317 0 00-4.514 11.952 10.31 10.31 0 0010.559 7.184l27.269-1.902c-26.037 34.993-65.227 49.355-110.178 53.036V153.103h22.449c3.62 2.695 8.07 4.343 12.929 4.343 12.021 0 21.771-9.742 21.771-21.764 0-12.029-9.75-21.771-21.771-21.771-4.867 0-9.318 1.656-12.938 4.351h-22.441V86.789c12.776-8.494 21.231-22.987 21.231-39.436C284.845 21.247 263.6 0 237.493 0s-47.354 21.247-47.354 47.353c0 16.449 8.456 30.942 21.231 39.436v31.474h-22.44c-3.62-2.695-8.07-4.351-12.937-4.351-12.021 0-21.771 9.742-21.771 21.771 0 12.021 9.75 21.764 21.771 21.764 4.859 0 9.309-1.648 12.929-4.343h22.448v229.162c-44.95-3.681-84.14-18.043-110.176-53.036l27.269 1.902a10.309 10.309 0 0010.558-7.184 10.317 10.317 0 00-4.513-11.952L64.692 269.91a10.315 10.315 0 00-9.542-.577 10.32 10.32 0 00-5.93 7.501l-15.14 80.104a10.315 10.315 0 005.906 11.327 10.313 10.313 0 0012.399-3.088l16.287-21.008c31.843 51.565 81.914 94.736 139.664 105.942l21.854 21.854c4.036 4.028 10.565 4.028 14.594 0l21.854-21.854c57.75-11.198 107.828-54.377 139.672-105.942l16.287 21.008a10.312 10.312 0 0012.398 3.088 10.315 10.315 0 005.909-11.328zM237.493 34.839c6.9 0 12.513 5.614 12.513 12.514 0 6.9-5.613 12.514-12.513 12.514-6.9 0-12.515-5.614-12.515-12.514.001-6.9 5.615-12.514 12.515-12.514z"/></svg>