<svg xmlns="http://www.w3.org/2000/svg" viewBox="0 0 480 480"><path d="M472 104.251h-32.648c4.691-30.57-16.287-59.155-46.858-63.846s-59.155 16.287-63.846 46.858a56 56 0 000 16.989H64v-40a8 8 0 00-8-8H32c-17.673 0-32 14.327-32 32v320c0 17.673 14.327 32 32 32h440a8 8 0 008-8v-320a8 8 0 00-8-8.001zM354.155 69.593A39.952 39.952 0 01384 56.252c22.065-.03 39.976 17.834 40.005 39.898a39.955 39.955 0 01-13.341 29.854 8 8 0 00-2.664 5.952v12.296h-16v-20.688l21.656-21.656-11.312-11.312L384 108.939l-18.344-18.344-11.312 11.312L376 123.563v20.688h-16v-12.296a7.999 7.999 0 00-2.656-5.952c-16.458-14.696-17.886-39.952-3.189-56.41zM16 88.251c0-8.837 7.163-16 16-16h16v304H32a31.76 31.76 0 00-16 4.296V88.251zm448 336H32c-8.837 0-16-7.163-16-16s7.163-16 16-16h24a8 8 0 008-8v-264h269.52A55.953 55.953 0 00344 135.363v8.888h-16v16h112v-16h-16v-8.888a56.162 56.162 0 0010.488-15.112H464v304z"/><path d="M296 144.251H96a8 8 0 00-8 8v168a8 8 0 008 8h200a8 8 0 008-8v-168a8 8 0 00-8-8zm-8 168H104v-36.32l47.584-40.8 58.76 58.76 11.312-11.312-10.344-10.328L240 243.563l48 48v20.688zm0-43.312l-42.344-42.344a8 8 0 00-11.312 0L200 260.939l-42.344-42.344a8 8 0 00-10.864-.416L104 254.859v-94.608h184v108.688zm72-84.688h16v16h-16zm32 0h48v16h-48zm-64 32h112v16H328zm0 32h112v16H328zm0 32h112v16H328zm0 32h80v16h-80zm-200 40h176v16H128zm-40 32h216v16H88z"/><path d="M200 176.251c-13.255 0-24 10.745-24 24s10.745 24 24 24 24-10.745 24-24-10.745-24-24-24zm0 32a8 8 0 110-16 8 8 0 010 16zm-72-32h16v16h-16zm120 16h16v16h-16zm-160 160h16v16H88zm344 0h-96a8 8 0 00-8 8v32a8 8 0 008 8h96a8 8 0 008-8v-32a8 8 0 00-8-8zm-8 32h-80v-16h80v16z"/></svg>