<svg xmlns="http://www.w3.org/2000/svg" viewBox="0 0 478.165 478.165"><path d="M478.165 290.794v176.742H375.638V302.549c0-41.481-14.783-69.673-51.881-69.673-28.371 0-45.107 19.087-52.578 37.456-2.69 6.615-3.507 15.879-3.507 25.024v172.159H165.246s1.375-279.328 0-308.257h102.447v43.692c-.139.359-.438.657-.578 1.056h.578v-1.056c13.687-20.999 37.934-50.925 92.385-50.925 67.581.001 118.087 44.052 118.087 138.769zM57.997 10.629C22.952 10.629 0 33.621 0 63.945c0 29.507 22.275 53.276 56.682 53.276h.618c35.822 0 58.017-23.769 58.017-53.276-.697-30.324-22.194-53.316-57.32-53.316zM6.117 467.535h102.467V159.239H6.117v308.296z"/></svg>