<?xml version="1.0" encoding="utf-8"?><svg xmlns="http://www.w3.org/2000/svg" xmlns:xlink="http://www.w3.org/1999/xlink"><symbol viewBox="0 0 511.958 511.958" id="behance" xmlns="http://www.w3.org/2000/svg"><path d="M210.624 240.619c10.624-5.344 18.656-11.296 24.16-17.728 9.792-11.584 14.624-26.944 14.624-45.984 0-18.528-4.832-34.368-14.496-47.648-16.128-21.632-43.424-32.704-82.016-33.28H0v312.096h142.56c16.064 0 30.944-1.376 44.704-4.192 13.76-2.848 25.664-8.064 35.744-15.68 8.96-6.624 16.448-14.848 22.4-24.544 9.408-14.656 14.112-31.264 14.112-49.76 0-17.92-4.128-33.184-12.32-45.728-8.288-12.544-20.448-21.728-36.576-27.552zM63.072 150.187h68.864c15.136 0 27.616 1.632 37.408 4.864 11.328 4.704 16.992 14.272 16.992 28.864 0 13.088-4.32 22.24-12.864 27.392-8.608 5.152-19.776 7.744-33.472 7.744H63.072v-68.864zm108.896 198.24c-7.616 3.68-18.336 5.504-32.064 5.504H63.072v-83.232h77.888c13.568.096 24.128 1.888 31.68 5.248 13.44 6.08 20.128 17.216 20.128 33.504 0 19.2-6.912 32.128-20.8 38.976zm155.2-237.888h135.584v38.848H327.168zm182.688 153.312c-2.816-18.08-9.024-33.984-18.688-47.712-10.592-15.552-24.032-26.944-40.384-34.144-16.288-7.232-34.624-10.848-55.04-10.816-34.272 0-62.112 10.72-83.648 32-21.472 21.344-32.224 52.032-32.224 92.032 0 42.656 11.872 73.472 35.744 92.384 23.776 18.944 51.232 28.384 82.4 28.384 37.728 0 67.072-11.232 88.032-33.632 13.408-14.144 20.992-28.064 22.656-41.728H446.24c-3.616 6.752-7.808 12.032-12.608 15.872-8.704 7.04-20.032 10.56-33.92 10.56-13.216 0-24.416-2.912-33.76-8.704-15.424-9.28-23.488-25.536-24.512-48.672h170.464c.256-19.936-.384-35.264-2.048-45.824zm-166.88 5.984c2.24-15.008 7.68-26.912 16.32-35.712 8.64-8.768 20.864-13.184 36.512-13.216 14.432 0 26.496 4.128 36.32 12.416 9.696 8.352 15.168 20.48 16.288 36.512h-105.44z"/></symbol><symbol viewBox="0 0 1713 400" id="bg-clients" xmlns="http://www.w3.org/2000/svg"><path d="M0 0h1313a400 400 0 01400 400H0V0z"/></symbol><symbol viewBox="0 0 495 763" id="circle-gray" xmlns="http://www.w3.org/2000/svg"><circle cx="113.5" cy="381.5" r="331.5"/></symbol><symbol viewBox="0 0 96.124 96.123" id="facebook" xmlns="http://www.w3.org/2000/svg"><path d="M72.089.02L59.624 0C45.62 0 36.57 9.285 36.57 23.656v10.907H24.037a1.96 1.96 0 00-1.96 1.961v15.803a1.96 1.96 0 001.96 1.96H36.57v39.876a1.96 1.96 0 001.96 1.96h16.352a1.96 1.96 0 001.96-1.96V54.287h14.654a1.96 1.96 0 001.96-1.96l.006-15.803a1.963 1.963 0 00-1.961-1.961H56.842v-9.246c0-4.444 1.059-6.7 6.848-6.7l8.397-.003a1.96 1.96 0 001.959-1.96V1.98A1.96 1.96 0 0072.089.02z"/></symbol><symbol viewBox="-91 0 512 512" id="foursquare" xmlns="http://www.w3.org/2000/svg"><path d="M292.5 151L330 0H0v512l120-211h135l30-120H120v-30zm0 0"/></symbol><symbol viewBox="0 0 344.339 344.339" id="menu" xmlns="http://www.w3.org/2000/svg"><path d="M0 46.06h344.339v29.52H0zm0 110.446h344.339v29.52H0zm0 112.242h344.339v29.531H0z"/></symbol><symbol viewBox="0 0 97.75 97.75" id="pinterest" xmlns="http://www.w3.org/2000/svg"><path d="M48.875 0C21.883 0 0 21.882 0 48.875S21.883 97.75 48.875 97.75 97.75 75.868 97.75 48.875 75.867 0 48.875 0zm5.624 65.109c-4.521 0-8.773-2.444-10.229-5.219 0 0-2.432 9.645-2.943 11.506-1.813 6.58-7.146 13.162-7.561 13.701-.289.375-.928.258-.994-.24-.113-.838-1.475-9.139.127-15.909.801-3.4 5.383-22.814 5.383-22.814s-1.334-2.673-1.334-6.625c0-6.205 3.596-10.837 8.074-10.837 3.807 0 5.645 2.859 5.645 6.286 0 3.828-2.436 9.552-3.693 14.856-1.051 4.441 2.225 8.064 6.605 8.064 7.933 0 13.272-10.188 13.272-22.261 0-9.174-6.176-16.044-17.418-16.044-12.697 0-20.615 9.471-20.615 20.052 0 3.646 1.078 6.221 2.764 8.21.773.915.883 1.283.602 2.333-.203.771-.66 2.625-.854 3.358-.279 1.062-1.137 1.44-2.098 1.049-5.846-2.387-8.572-8.793-8.572-15.994 0-11.893 10.029-26.154 29.922-26.154 15.985 0 26.506 11.566 26.506 23.984.001 16.428-9.132 28.698-22.589 28.698z"/></symbol><symbol viewBox="0 0 651 771.68" id="rhombus-gray" xmlns="http://www.w3.org/2000/svg"><path d="M50 341.92L429.77 50l291.92 379.77-379.77 291.92z"/></symbol><symbol viewBox="0 0 59 622" id="triangle" xmlns="http://www.w3.org/2000/svg"><path data-name="Фигура 1" d="M0 0h59l-1 622z" fill-rule="evenodd"/></symbol><symbol viewBox="0 0 512 512" id="twitter" xmlns="http://www.w3.org/2000/svg"><path d="M512 97.248c-19.04 8.352-39.328 13.888-60.48 16.576 21.76-12.992 38.368-33.408 46.176-58.016-20.288 12.096-42.688 20.64-66.56 25.408C411.872 60.704 384.416 48 354.464 48c-58.112 0-104.896 47.168-104.896 104.992 0 8.32.704 16.32 2.432 23.936-87.264-4.256-164.48-46.08-216.352-109.792-9.056 15.712-14.368 33.696-14.368 53.056 0 36.352 18.72 68.576 46.624 87.232-16.864-.32-33.408-5.216-47.424-12.928v1.152c0 51.008 36.384 93.376 84.096 103.136-8.544 2.336-17.856 3.456-27.52 3.456-6.72 0-13.504-.384-19.872-1.792 13.6 41.568 52.192 72.128 98.08 73.12-35.712 27.936-81.056 44.768-130.144 44.768-8.608 0-16.864-.384-25.12-1.44C46.496 446.88 101.6 464 161.024 464c193.152 0 298.752-160 298.752-298.688 0-4.64-.16-9.12-.384-13.568 20.832-14.784 38.336-33.248 52.608-54.496z"/></symbol></svg>